<svg width="1024" height="1024" viewBox="0 0 1024 1024" fill="none" xmlns="http://www.w3.org/2000/svg">
<path d="M512 96C520.897 96 529.429 99.5344 535.72 105.825C542.011 112.116 545.546 120.649 545.546 129.546V186.971C597.164 194.261 645.053 218.133 681.96 255.04C718.867 291.947 742.739 339.836 750.029 391.454H807.454C816.351 391.454 824.884 394.988 831.175 401.279C837.466 407.57 841 416.103 841 425C841 433.897 837.466 442.429 831.175 448.72C824.884 455.011 816.351 458.545 807.454 458.545H750.029C742.739 510.164 718.867 558.053 681.96 594.96C645.053 631.867 597.164 655.738 545.546 663.028V720.454C545.546 729.351 542.011 737.884 535.72 744.175C529.429 750.466 520.897 754 512 754C503.103 754 494.57 750.466 488.279 744.175C481.988 737.884 478.454 729.351 478.454 720.454V663.028C426.836 655.738 378.947 631.867 342.04 594.96C305.133 558.053 281.261 510.164 273.971 458.545H216.546C207.649 458.545 199.116 455.011 192.825 448.72C186.534 442.429 183 433.897 183 425C183 416.103 186.534 407.57 192.825 401.279C199.116 394.988 207.649 391.454 216.546 391.454H273.971C281.261 339.836 305.133 291.947 342.04 255.04C378.947 218.133 426.836 194.261 478.454 186.971V129.546C478.454 120.649 481.988 112.116 488.279 105.825C494.57 99.5342 503.103 96 512 96ZM512 251.728C466.045 251.728 421.972 269.983 389.478 302.478C356.983 334.972 338.728 379.045 338.728 425C338.728 470.955 356.983 515.028 389.478 547.522C421.972 580.017 466.045 598.272 512 598.272C557.955 598.272 602.028 580.017 634.522 547.522C667.017 515.028 685.272 470.955 685.272 425C685.272 379.045 667.017 334.972 634.522 302.478C602.028 269.983 557.955 251.728 512 251.728Z" fill="black" stroke="black" style="fill:black;fill-opacity:1;stroke:black;stroke-opacity:1;" stroke-width="8"/>
</svg>
