<svg width="1024" height="1024" viewBox="0 0 1024 1024" fill="none" xmlns="http://www.w3.org/2000/svg">
<path d="M401 247C401 262.096 403.96 276.452 409.88 290.068C415.8 303.684 423.644 315.524 433.412 325.588C443.18 335.652 455.02 343.57 468.932 349.342C482.844 355.114 497.2 358 512 358C526.8 358 541.156 355.114 555.068 349.342C568.98 343.57 580.82 335.652 590.588 325.588C600.356 315.524 608.2 303.684 614.12 290.068C620.04 276.452 623 262.096 623 247C623 231.904 620.04 217.548 614.12 203.932C608.2 190.316 600.356 178.476 590.588 168.412C580.82 158.348 569.054 150.504 555.29 144.88C541.526 139.256 527.096 136.296 512 136C496.904 136 482.548 138.96 468.932 144.88C455.316 150.8 443.476 158.644 433.412 168.412C423.348 178.18 415.504 190.02 409.88 203.932C404.256 217.844 401.296 232.2 401 247ZM428.75 247C428.75 231.904 432.45 217.992 439.85 205.264C447.25 192.536 457.388 182.472 470.264 175.072C483.14 167.672 497.052 163.898 512 163.75C526.948 163.602 540.86 167.376 553.736 175.072C566.612 182.768 576.75 192.832 584.15 205.264C591.55 217.696 595.25 231.608 595.25 247C595.25 262.392 591.55 276.378 584.15 288.958C576.75 301.538 566.612 311.602 553.736 319.15C540.86 326.698 526.948 330.398 512 330.25C497.052 330.102 483.14 326.402 470.264 319.15C457.388 311.898 447.25 301.834 439.85 288.958C432.45 276.082 428.75 262.096 428.75 247Z" fill="black" stroke="black" style="fill:black;fill-opacity:1;stroke:black;stroke-opacity:1;" stroke-width="30"/>
<path d="M512.001 439.999V1132.5M512.001 439.999L235.001 621.368M512.001 439.999L789.001 621.368" stroke="black" style="stroke:black;stroke-opacity:1;" stroke-width="100" stroke-linecap="round" stroke-linejoin="round"/>
</svg>
