<svg width="1024" height="1024" viewBox="0 0 1024 1024" fill="none" xmlns="http://www.w3.org/2000/svg">
<path d="M512 53C517.859 53 523.478 55.3279 527.621 59.4707C531.764 63.6135 534.091 69.2322 534.091 75.0908V108.911C565.521 113.641 594.646 128.318 617.164 150.836C639.682 173.354 654.358 202.479 659.088 233.909H692.909C698.768 233.909 704.386 236.236 708.529 240.379C712.672 244.522 715 250.141 715 256C715 261.859 712.672 267.477 708.529 271.62C704.386 275.763 698.768 278.091 692.909 278.091H659.088C654.358 309.521 639.682 338.646 617.164 361.164C594.646 383.682 565.521 398.358 534.091 403.088V436.909C534.091 442.768 531.764 448.387 527.621 452.529C523.478 456.672 517.859 459 512 459C506.141 459 500.522 456.672 496.379 452.529C492.236 448.387 489.909 442.768 489.909 436.909V403.088C458.479 398.358 429.354 383.682 406.836 361.164C384.318 338.646 369.642 309.521 364.912 278.091H331.091C325.232 278.091 319.614 275.763 315.471 271.62C311.328 267.477 309 261.859 309 256C309 250.141 311.328 244.522 315.471 240.379C319.614 236.236 325.232 233.909 331.091 233.909H364.912C369.642 202.479 384.318 173.354 406.836 150.836C429.354 128.318 458.479 113.641 489.909 108.911V75.0908C489.909 69.2322 492.236 63.6135 496.379 59.4707C500.522 55.3279 506.141 53 512 53ZM512 151.454C484.273 151.454 457.681 162.469 438.075 182.075C418.469 201.681 407.454 228.273 407.454 256C407.454 283.727 418.469 310.319 438.075 329.925C457.681 349.531 484.273 360.546 512 360.546C539.727 360.546 566.319 349.531 585.925 329.925C605.531 310.319 616.546 283.727 616.546 256C616.546 228.273 605.531 201.681 585.925 182.075C566.319 162.469 539.727 151.454 512 151.454Z" fill="black" stroke="black" style="fill:black;fill-opacity:1;stroke:black;stroke-opacity:1;" stroke-width="8"/>
</svg>
